<svg xmlns="http://www.w3.org/2000/svg" width="728.0" height="243.68" viewBox="0 0 728.0 243.68" role="img" aria-labelledby="title description">
<title id="title">Circular-distance matrix for R_3_12_graphSize_48.clq</title>
<desc id="description">A coloured circular-distance matrix following the paper convention. Red cells are DIMACS edges and blue cells are complementary edges.</desc>
<rect width="100%" height="100%" fill="white"/>
<text x="34" y="31" font-family="Arial, sans-serif" font-size="18" font-weight="700">Circular-distance matrix for R_3_12_graphSize_48.clq</text>
<text x="34" y="55" font-family="Arial, sans-serif" font-size="13">Graph order t = 48; each cell represents one circular distance.</text>
<g><title>distance 1: 48/48 DIMACS edges</title>
<rect x="34.0" y="82.0" width="41.0" height="34.839999999999996" rx="3" fill="#f28b82" stroke="#333"/>
<text x="54.5" y="106.22" text-anchor="middle" font-family="Arial, sans-serif" font-size="13.0">1</text></g>
<g><title>distance 2: 48/48 DIMACS edges</title>
<rect x="78.0" y="82.0" width="41.0" height="34.839999999999996" rx="3" fill="#f28b82" stroke="#333"/>
<text x="98.5" y="106.22" text-anchor="middle" font-family="Arial, sans-serif" font-size="13.0">2</text></g>
<g><title>distance 3: 0/48 DIMACS edges</title>
<rect x="122.0" y="82.0" width="41.0" height="34.839999999999996" rx="3" fill="#6ea8fe" stroke="#333"/>
<text x="142.5" y="106.22" text-anchor="middle" font-family="Arial, sans-serif" font-size="13.0">3</text></g>
<g><title>distance 4: 48/48 DIMACS edges</title>
<rect x="166.0" y="82.0" width="41.0" height="34.839999999999996" rx="3" fill="#f28b82" stroke="#333"/>
<text x="186.5" y="106.22" text-anchor="middle" font-family="Arial, sans-serif" font-size="13.0">4</text></g>
<g><title>distance 5: 48/48 DIMACS edges</title>
<rect x="210.0" y="82.0" width="41.0" height="34.839999999999996" rx="3" fill="#f28b82" stroke="#333"/>
<text x="230.5" y="106.22" text-anchor="middle" font-family="Arial, sans-serif" font-size="13.0">5</text></g>
<g><title>distance 6: 48/48 DIMACS edges</title>
<rect x="254.0" y="82.0" width="41.0" height="34.839999999999996" rx="3" fill="#f28b82" stroke="#333"/>
<text x="274.5" y="106.22" text-anchor="middle" font-family="Arial, sans-serif" font-size="13.0">6</text></g>
<g><title>distance 7: 48/48 DIMACS edges</title>
<rect x="298.0" y="82.0" width="41.0" height="34.839999999999996" rx="3" fill="#f28b82" stroke="#333"/>
<text x="318.5" y="106.22" text-anchor="middle" font-family="Arial, sans-serif" font-size="13.0">7</text></g>
<g><title>distance 8: 0/48 DIMACS edges</title>
<rect x="342.0" y="82.0" width="41.0" height="34.839999999999996" rx="3" fill="#6ea8fe" stroke="#333"/>
<text x="362.5" y="106.22" text-anchor="middle" font-family="Arial, sans-serif" font-size="13.0">8</text></g>
<g><title>distance 9: 0/48 DIMACS edges</title>
<rect x="386.0" y="82.0" width="41.0" height="34.839999999999996" rx="3" fill="#6ea8fe" stroke="#333"/>
<text x="406.5" y="106.22" text-anchor="middle" font-family="Arial, sans-serif" font-size="13.0">9</text></g>
<g><title>distance 10: 0/48 DIMACS edges</title>
<rect x="430.0" y="82.0" width="41.0" height="34.839999999999996" rx="3" fill="#6ea8fe" stroke="#333"/>
<text x="450.5" y="106.22" text-anchor="middle" font-family="Arial, sans-serif" font-size="13.0">10</text></g>
<g><title>distance 11: 48/48 DIMACS edges</title>
<rect x="474.0" y="82.0" width="41.0" height="34.839999999999996" rx="3" fill="#f28b82" stroke="#333"/>
<text x="494.5" y="106.22" text-anchor="middle" font-family="Arial, sans-serif" font-size="13.0">11</text></g>
<g><title>distance 12: 48/48 DIMACS edges</title>
<rect x="518.0" y="82.0" width="41.0" height="34.839999999999996" rx="3" fill="#f28b82" stroke="#333"/>
<text x="538.5" y="106.22" text-anchor="middle" font-family="Arial, sans-serif" font-size="13.0">12</text></g>
<g><title>distance 13: 48/48 DIMACS edges</title>
<rect x="562.0" y="82.0" width="41.0" height="34.839999999999996" rx="3" fill="#f28b82" stroke="#333"/>
<text x="582.5" y="106.22" text-anchor="middle" font-family="Arial, sans-serif" font-size="13.0">13</text></g>
<g><title>distance 14: 48/48 DIMACS edges</title>
<rect x="606.0" y="82.0" width="41.0" height="34.839999999999996" rx="3" fill="#f28b82" stroke="#333"/>
<text x="626.5" y="106.22" text-anchor="middle" font-family="Arial, sans-serif" font-size="13.0">14</text></g>
<g><title>distance 15: 48/48 DIMACS edges</title>
<rect x="650.0" y="82.0" width="41.0" height="34.839999999999996" rx="3" fill="#f28b82" stroke="#333"/>
<text x="670.5" y="106.22" text-anchor="middle" font-family="Arial, sans-serif" font-size="13.0">15</text></g>
<g><title>distance 16: 48/48 DIMACS edges</title>
<rect x="34.0" y="119.84" width="41.0" height="34.839999999999996" rx="3" fill="#f28b82" stroke="#333"/>
<text x="54.5" y="144.06" text-anchor="middle" font-family="Arial, sans-serif" font-size="13.0">16</text></g>
<g><title>distance 17: 48/48 DIMACS edges</title>
<rect x="78.0" y="119.84" width="41.0" height="34.839999999999996" rx="3" fill="#f28b82" stroke="#333"/>
<text x="98.5" y="144.06" text-anchor="middle" font-family="Arial, sans-serif" font-size="13.0">17</text></g>
<g><title>distance 18: 48/48 DIMACS edges</title>
<rect x="122.0" y="119.84" width="41.0" height="34.839999999999996" rx="3" fill="#f28b82" stroke="#333"/>
<text x="142.5" y="144.06" text-anchor="middle" font-family="Arial, sans-serif" font-size="13.0">18</text></g>
<g><title>distance 19: 48/48 DIMACS edges</title>
<rect x="166.0" y="119.84" width="41.0" height="34.839999999999996" rx="3" fill="#f28b82" stroke="#333"/>
<text x="186.5" y="144.06" text-anchor="middle" font-family="Arial, sans-serif" font-size="13.0">19</text></g>
<g><title>distance 20: 48/48 DIMACS edges</title>
<rect x="210.0" y="119.84" width="41.0" height="34.839999999999996" rx="3" fill="#f28b82" stroke="#333"/>
<text x="230.5" y="144.06" text-anchor="middle" font-family="Arial, sans-serif" font-size="13.0">20</text></g>
<g><title>distance 21: 48/48 DIMACS edges</title>
<rect x="254.0" y="119.84" width="41.0" height="34.839999999999996" rx="3" fill="#f28b82" stroke="#333"/>
<text x="274.5" y="144.06" text-anchor="middle" font-family="Arial, sans-serif" font-size="13.0">21</text></g>
<g><title>distance 22: 0/48 DIMACS edges</title>
<rect x="298.0" y="119.84" width="41.0" height="34.839999999999996" rx="3" fill="#6ea8fe" stroke="#333"/>
<text x="318.5" y="144.06" text-anchor="middle" font-family="Arial, sans-serif" font-size="13.0">22</text></g>
<g><title>distance 23: 48/48 DIMACS edges</title>
<rect x="342.0" y="119.84" width="41.0" height="34.839999999999996" rx="3" fill="#f28b82" stroke="#333"/>
<text x="362.5" y="144.06" text-anchor="middle" font-family="Arial, sans-serif" font-size="13.0">23</text></g>
<g><title>distance 24: 0/24 DIMACS edges</title>
<rect x="386.0" y="119.84" width="41.0" height="34.839999999999996" rx="3" fill="#6ea8fe" stroke="#333"/>
<text x="406.5" y="144.06" text-anchor="middle" font-family="Arial, sans-serif" font-size="13.0">24</text></g>
<rect x="34" y="187.68" width="18" height="18" fill="#6ea8fe" stroke="#333"/>
<text x="59" y="201.68" font-family="Arial, sans-serif" font-size="12">Blue: blue circular distance</text>
<rect x="264" y="187.68" width="18" height="18" fill="#f28b82" stroke="#333"/>
<text x="289" y="201.68" font-family="Arial, sans-serif" font-size="12">Red: red circular distance</text>
</svg>
