<svg xmlns="http://www.w3.org/2000/svg" width="728.0" height="395.03999999999996" viewBox="0 0 728.0 395.03999999999996" role="img" aria-labelledby="title description">
<title id="title">Circular-distance matrix for R_3_25_graphSize_159.clq</title>
<desc id="description">A coloured circular-distance matrix following the paper convention. Red cells are DIMACS edges and blue cells are complementary edges.</desc>
<rect width="100%" height="100%" fill="white"/>
<text x="34" y="31" font-family="Arial, sans-serif" font-size="18" font-weight="700">Circular-distance matrix for R_3_25_graphSize_159.clq</text>
<text x="34" y="55" font-family="Arial, sans-serif" font-size="13">Graph order t = 159; each cell represents one circular distance.</text>
<g><title>distance 1: 0/159 DIMACS edges</title>
<rect x="34.0" y="82.0" width="41.0" height="34.839999999999996" rx="3" fill="#6ea8fe" stroke="#333"/>
<text x="54.5" y="106.22" text-anchor="middle" font-family="Arial, sans-serif" font-size="13.0">1</text></g>
<g><title>distance 2: 159/159 DIMACS edges</title>
<rect x="78.0" y="82.0" width="41.0" height="34.839999999999996" rx="3" fill="#f28b82" stroke="#333"/>
<text x="98.5" y="106.22" text-anchor="middle" font-family="Arial, sans-serif" font-size="13.0">2</text></g>
<g><title>distance 3: 159/159 DIMACS edges</title>
<rect x="122.0" y="82.0" width="41.0" height="34.839999999999996" rx="3" fill="#f28b82" stroke="#333"/>
<text x="142.5" y="106.22" text-anchor="middle" font-family="Arial, sans-serif" font-size="13.0">3</text></g>
<g><title>distance 4: 159/159 DIMACS edges</title>
<rect x="166.0" y="82.0" width="41.0" height="34.839999999999996" rx="3" fill="#f28b82" stroke="#333"/>
<text x="186.5" y="106.22" text-anchor="middle" font-family="Arial, sans-serif" font-size="13.0">4</text></g>
<g><title>distance 5: 159/159 DIMACS edges</title>
<rect x="210.0" y="82.0" width="41.0" height="34.839999999999996" rx="3" fill="#f28b82" stroke="#333"/>
<text x="230.5" y="106.22" text-anchor="middle" font-family="Arial, sans-serif" font-size="13.0">5</text></g>
<g><title>distance 6: 159/159 DIMACS edges</title>
<rect x="254.0" y="82.0" width="41.0" height="34.839999999999996" rx="3" fill="#f28b82" stroke="#333"/>
<text x="274.5" y="106.22" text-anchor="middle" font-family="Arial, sans-serif" font-size="13.0">6</text></g>
<g><title>distance 7: 0/159 DIMACS edges</title>
<rect x="298.0" y="82.0" width="41.0" height="34.839999999999996" rx="3" fill="#6ea8fe" stroke="#333"/>
<text x="318.5" y="106.22" text-anchor="middle" font-family="Arial, sans-serif" font-size="13.0">7</text></g>
<g><title>distance 8: 159/159 DIMACS edges</title>
<rect x="342.0" y="82.0" width="41.0" height="34.839999999999996" rx="3" fill="#f28b82" stroke="#333"/>
<text x="362.5" y="106.22" text-anchor="middle" font-family="Arial, sans-serif" font-size="13.0">8</text></g>
<g><title>distance 9: 159/159 DIMACS edges</title>
<rect x="386.0" y="82.0" width="41.0" height="34.839999999999996" rx="3" fill="#f28b82" stroke="#333"/>
<text x="406.5" y="106.22" text-anchor="middle" font-family="Arial, sans-serif" font-size="13.0">9</text></g>
<g><title>distance 10: 159/159 DIMACS edges</title>
<rect x="430.0" y="82.0" width="41.0" height="34.839999999999996" rx="3" fill="#f28b82" stroke="#333"/>
<text x="450.5" y="106.22" text-anchor="middle" font-family="Arial, sans-serif" font-size="13.0">10</text></g>
<g><title>distance 11: 0/159 DIMACS edges</title>
<rect x="474.0" y="82.0" width="41.0" height="34.839999999999996" rx="3" fill="#6ea8fe" stroke="#333"/>
<text x="494.5" y="106.22" text-anchor="middle" font-family="Arial, sans-serif" font-size="13.0">11</text></g>
<g><title>distance 12: 159/159 DIMACS edges</title>
<rect x="518.0" y="82.0" width="41.0" height="34.839999999999996" rx="3" fill="#f28b82" stroke="#333"/>
<text x="538.5" y="106.22" text-anchor="middle" font-family="Arial, sans-serif" font-size="13.0">12</text></g>
<g><title>distance 13: 159/159 DIMACS edges</title>
<rect x="562.0" y="82.0" width="41.0" height="34.839999999999996" rx="3" fill="#f28b82" stroke="#333"/>
<text x="582.5" y="106.22" text-anchor="middle" font-family="Arial, sans-serif" font-size="13.0">13</text></g>
<g><title>distance 14: 159/159 DIMACS edges</title>
<rect x="606.0" y="82.0" width="41.0" height="34.839999999999996" rx="3" fill="#f28b82" stroke="#333"/>
<text x="626.5" y="106.22" text-anchor="middle" font-family="Arial, sans-serif" font-size="13.0">14</text></g>
<g><title>distance 15: 159/159 DIMACS edges</title>
<rect x="650.0" y="82.0" width="41.0" height="34.839999999999996" rx="3" fill="#f28b82" stroke="#333"/>
<text x="670.5" y="106.22" text-anchor="middle" font-family="Arial, sans-serif" font-size="13.0">15</text></g>
<g><title>distance 16: 159/159 DIMACS edges</title>
<rect x="34.0" y="119.84" width="41.0" height="34.839999999999996" rx="3" fill="#f28b82" stroke="#333"/>
<text x="54.5" y="144.06" text-anchor="middle" font-family="Arial, sans-serif" font-size="13.0">16</text></g>
<g><title>distance 17: 159/159 DIMACS edges</title>
<rect x="78.0" y="119.84" width="41.0" height="34.839999999999996" rx="3" fill="#f28b82" stroke="#333"/>
<text x="98.5" y="144.06" text-anchor="middle" font-family="Arial, sans-serif" font-size="13.0">17</text></g>
<g><title>distance 18: 159/159 DIMACS edges</title>
<rect x="122.0" y="119.84" width="41.0" height="34.839999999999996" rx="3" fill="#f28b82" stroke="#333"/>
<text x="142.5" y="144.06" text-anchor="middle" font-family="Arial, sans-serif" font-size="13.0">18</text></g>
<g><title>distance 19: 0/159 DIMACS edges</title>
<rect x="166.0" y="119.84" width="41.0" height="34.839999999999996" rx="3" fill="#6ea8fe" stroke="#333"/>
<text x="186.5" y="144.06" text-anchor="middle" font-family="Arial, sans-serif" font-size="13.0">19</text></g>
<g><title>distance 20: 159/159 DIMACS edges</title>
<rect x="210.0" y="119.84" width="41.0" height="34.839999999999996" rx="3" fill="#f28b82" stroke="#333"/>
<text x="230.5" y="144.06" text-anchor="middle" font-family="Arial, sans-serif" font-size="13.0">20</text></g>
<g><title>distance 21: 159/159 DIMACS edges</title>
<rect x="254.0" y="119.84" width="41.0" height="34.839999999999996" rx="3" fill="#f28b82" stroke="#333"/>
<text x="274.5" y="144.06" text-anchor="middle" font-family="Arial, sans-serif" font-size="13.0">21</text></g>
<g><title>distance 22: 159/159 DIMACS edges</title>
<rect x="298.0" y="119.84" width="41.0" height="34.839999999999996" rx="3" fill="#f28b82" stroke="#333"/>
<text x="318.5" y="144.06" text-anchor="middle" font-family="Arial, sans-serif" font-size="13.0">22</text></g>
<g><title>distance 23: 159/159 DIMACS edges</title>
<rect x="342.0" y="119.84" width="41.0" height="34.839999999999996" rx="3" fill="#f28b82" stroke="#333"/>
<text x="362.5" y="144.06" text-anchor="middle" font-family="Arial, sans-serif" font-size="13.0">23</text></g>
<g><title>distance 24: 0/159 DIMACS edges</title>
<rect x="386.0" y="119.84" width="41.0" height="34.839999999999996" rx="3" fill="#6ea8fe" stroke="#333"/>
<text x="406.5" y="144.06" text-anchor="middle" font-family="Arial, sans-serif" font-size="13.0">24</text></g>
<g><title>distance 25: 159/159 DIMACS edges</title>
<rect x="430.0" y="119.84" width="41.0" height="34.839999999999996" rx="3" fill="#f28b82" stroke="#333"/>
<text x="450.5" y="144.06" text-anchor="middle" font-family="Arial, sans-serif" font-size="13.0">25</text></g>
<g><title>distance 26: 159/159 DIMACS edges</title>
<rect x="474.0" y="119.84" width="41.0" height="34.839999999999996" rx="3" fill="#f28b82" stroke="#333"/>
<text x="494.5" y="144.06" text-anchor="middle" font-family="Arial, sans-serif" font-size="13.0">26</text></g>
<g><title>distance 27: 159/159 DIMACS edges</title>
<rect x="518.0" y="119.84" width="41.0" height="34.839999999999996" rx="3" fill="#f28b82" stroke="#333"/>
<text x="538.5" y="144.06" text-anchor="middle" font-family="Arial, sans-serif" font-size="13.0">27</text></g>
<g><title>distance 28: 159/159 DIMACS edges</title>
<rect x="562.0" y="119.84" width="41.0" height="34.839999999999996" rx="3" fill="#f28b82" stroke="#333"/>
<text x="582.5" y="144.06" text-anchor="middle" font-family="Arial, sans-serif" font-size="13.0">28</text></g>
<g><title>distance 29: 159/159 DIMACS edges</title>
<rect x="606.0" y="119.84" width="41.0" height="34.839999999999996" rx="3" fill="#f28b82" stroke="#333"/>
<text x="626.5" y="144.06" text-anchor="middle" font-family="Arial, sans-serif" font-size="13.0">29</text></g>
<g><title>distance 30: 159/159 DIMACS edges</title>
<rect x="650.0" y="119.84" width="41.0" height="34.839999999999996" rx="3" fill="#f28b82" stroke="#333"/>
<text x="670.5" y="144.06" text-anchor="middle" font-family="Arial, sans-serif" font-size="13.0">30</text></g>
<g><title>distance 31: 159/159 DIMACS edges</title>
<rect x="34.0" y="157.68" width="41.0" height="34.839999999999996" rx="3" fill="#f28b82" stroke="#333"/>
<text x="54.5" y="181.90" text-anchor="middle" font-family="Arial, sans-serif" font-size="13.0">31</text></g>
<g><title>distance 32: 159/159 DIMACS edges</title>
<rect x="78.0" y="157.68" width="41.0" height="34.839999999999996" rx="3" fill="#f28b82" stroke="#333"/>
<text x="98.5" y="181.90" text-anchor="middle" font-family="Arial, sans-serif" font-size="13.0">32</text></g>
<g><title>distance 33: 159/159 DIMACS edges</title>
<rect x="122.0" y="157.68" width="41.0" height="34.839999999999996" rx="3" fill="#f28b82" stroke="#333"/>
<text x="142.5" y="181.90" text-anchor="middle" font-family="Arial, sans-serif" font-size="13.0">33</text></g>
<g><title>distance 34: 0/159 DIMACS edges</title>
<rect x="166.0" y="157.68" width="41.0" height="34.839999999999996" rx="3" fill="#6ea8fe" stroke="#333"/>
<text x="186.5" y="181.90" text-anchor="middle" font-family="Arial, sans-serif" font-size="13.0">34</text></g>
<g><title>distance 35: 159/159 DIMACS edges</title>
<rect x="210.0" y="157.68" width="41.0" height="34.839999999999996" rx="3" fill="#f28b82" stroke="#333"/>
<text x="230.5" y="181.90" text-anchor="middle" font-family="Arial, sans-serif" font-size="13.0">35</text></g>
<g><title>distance 36: 0/159 DIMACS edges</title>
<rect x="254.0" y="157.68" width="41.0" height="34.839999999999996" rx="3" fill="#6ea8fe" stroke="#333"/>
<text x="274.5" y="181.90" text-anchor="middle" font-family="Arial, sans-serif" font-size="13.0">36</text></g>
<g><title>distance 37: 159/159 DIMACS edges</title>
<rect x="298.0" y="157.68" width="41.0" height="34.839999999999996" rx="3" fill="#f28b82" stroke="#333"/>
<text x="318.5" y="181.90" text-anchor="middle" font-family="Arial, sans-serif" font-size="13.0">37</text></g>
<g><title>distance 38: 159/159 DIMACS edges</title>
<rect x="342.0" y="157.68" width="41.0" height="34.839999999999996" rx="3" fill="#f28b82" stroke="#333"/>
<text x="362.5" y="181.90" text-anchor="middle" font-family="Arial, sans-serif" font-size="13.0">38</text></g>
<g><title>distance 39: 159/159 DIMACS edges</title>
<rect x="386.0" y="157.68" width="41.0" height="34.839999999999996" rx="3" fill="#f28b82" stroke="#333"/>
<text x="406.5" y="181.90" text-anchor="middle" font-family="Arial, sans-serif" font-size="13.0">39</text></g>
<g><title>distance 40: 159/159 DIMACS edges</title>
<rect x="430.0" y="157.68" width="41.0" height="34.839999999999996" rx="3" fill="#f28b82" stroke="#333"/>
<text x="450.5" y="181.90" text-anchor="middle" font-family="Arial, sans-serif" font-size="13.0">40</text></g>
<g><title>distance 41: 159/159 DIMACS edges</title>
<rect x="474.0" y="157.68" width="41.0" height="34.839999999999996" rx="3" fill="#f28b82" stroke="#333"/>
<text x="494.5" y="181.90" text-anchor="middle" font-family="Arial, sans-serif" font-size="13.0">41</text></g>
<g><title>distance 42: 159/159 DIMACS edges</title>
<rect x="518.0" y="157.68" width="41.0" height="34.839999999999996" rx="3" fill="#f28b82" stroke="#333"/>
<text x="538.5" y="181.90" text-anchor="middle" font-family="Arial, sans-serif" font-size="13.0">42</text></g>
<g><title>distance 43: 159/159 DIMACS edges</title>
<rect x="562.0" y="157.68" width="41.0" height="34.839999999999996" rx="3" fill="#f28b82" stroke="#333"/>
<text x="582.5" y="181.90" text-anchor="middle" font-family="Arial, sans-serif" font-size="13.0">43</text></g>
<g><title>distance 44: 159/159 DIMACS edges</title>
<rect x="606.0" y="157.68" width="41.0" height="34.839999999999996" rx="3" fill="#f28b82" stroke="#333"/>
<text x="626.5" y="181.90" text-anchor="middle" font-family="Arial, sans-serif" font-size="13.0">44</text></g>
<g><title>distance 45: 159/159 DIMACS edges</title>
<rect x="650.0" y="157.68" width="41.0" height="34.839999999999996" rx="3" fill="#f28b82" stroke="#333"/>
<text x="670.5" y="181.90" text-anchor="middle" font-family="Arial, sans-serif" font-size="13.0">45</text></g>
<g><title>distance 46: 0/159 DIMACS edges</title>
<rect x="34.0" y="195.51999999999998" width="41.0" height="34.839999999999996" rx="3" fill="#6ea8fe" stroke="#333"/>
<text x="54.5" y="219.74" text-anchor="middle" font-family="Arial, sans-serif" font-size="13.0">46</text></g>
<g><title>distance 47: 159/159 DIMACS edges</title>
<rect x="78.0" y="195.51999999999998" width="41.0" height="34.839999999999996" rx="3" fill="#f28b82" stroke="#333"/>
<text x="98.5" y="219.74" text-anchor="middle" font-family="Arial, sans-serif" font-size="13.0">47</text></g>
<g><title>distance 48: 159/159 DIMACS edges</title>
<rect x="122.0" y="195.51999999999998" width="41.0" height="34.839999999999996" rx="3" fill="#f28b82" stroke="#333"/>
<text x="142.5" y="219.74" text-anchor="middle" font-family="Arial, sans-serif" font-size="13.0">48</text></g>
<g><title>distance 49: 159/159 DIMACS edges</title>
<rect x="166.0" y="195.51999999999998" width="41.0" height="34.839999999999996" rx="3" fill="#f28b82" stroke="#333"/>
<text x="186.5" y="219.74" text-anchor="middle" font-family="Arial, sans-serif" font-size="13.0">49</text></g>
<g><title>distance 50: 159/159 DIMACS edges</title>
<rect x="210.0" y="195.51999999999998" width="41.0" height="34.839999999999996" rx="3" fill="#f28b82" stroke="#333"/>
<text x="230.5" y="219.74" text-anchor="middle" font-family="Arial, sans-serif" font-size="13.0">50</text></g>
<g><title>distance 51: 159/159 DIMACS edges</title>
<rect x="254.0" y="195.51999999999998" width="41.0" height="34.839999999999996" rx="3" fill="#f28b82" stroke="#333"/>
<text x="274.5" y="219.74" text-anchor="middle" font-family="Arial, sans-serif" font-size="13.0">51</text></g>
<g><title>distance 52: 0/159 DIMACS edges</title>
<rect x="298.0" y="195.51999999999998" width="41.0" height="34.839999999999996" rx="3" fill="#6ea8fe" stroke="#333"/>
<text x="318.5" y="219.74" text-anchor="middle" font-family="Arial, sans-serif" font-size="13.0">52</text></g>
<g><title>distance 53: 159/159 DIMACS edges</title>
<rect x="342.0" y="195.51999999999998" width="41.0" height="34.839999999999996" rx="3" fill="#f28b82" stroke="#333"/>
<text x="362.5" y="219.74" text-anchor="middle" font-family="Arial, sans-serif" font-size="13.0">53</text></g>
<g><title>distance 54: 159/159 DIMACS edges</title>
<rect x="386.0" y="195.51999999999998" width="41.0" height="34.839999999999996" rx="3" fill="#f28b82" stroke="#333"/>
<text x="406.5" y="219.74" text-anchor="middle" font-family="Arial, sans-serif" font-size="13.0">54</text></g>
<g><title>distance 55: 159/159 DIMACS edges</title>
<rect x="430.0" y="195.51999999999998" width="41.0" height="34.839999999999996" rx="3" fill="#f28b82" stroke="#333"/>
<text x="450.5" y="219.74" text-anchor="middle" font-family="Arial, sans-serif" font-size="13.0">55</text></g>
<g><title>distance 56: 159/159 DIMACS edges</title>
<rect x="474.0" y="195.51999999999998" width="41.0" height="34.839999999999996" rx="3" fill="#f28b82" stroke="#333"/>
<text x="494.5" y="219.74" text-anchor="middle" font-family="Arial, sans-serif" font-size="13.0">56</text></g>
<g><title>distance 57: 159/159 DIMACS edges</title>
<rect x="518.0" y="195.51999999999998" width="41.0" height="34.839999999999996" rx="3" fill="#f28b82" stroke="#333"/>
<text x="538.5" y="219.74" text-anchor="middle" font-family="Arial, sans-serif" font-size="13.0">57</text></g>
<g><title>distance 58: 159/159 DIMACS edges</title>
<rect x="562.0" y="195.51999999999998" width="41.0" height="34.839999999999996" rx="3" fill="#f28b82" stroke="#333"/>
<text x="582.5" y="219.74" text-anchor="middle" font-family="Arial, sans-serif" font-size="13.0">58</text></g>
<g><title>distance 59: 159/159 DIMACS edges</title>
<rect x="606.0" y="195.51999999999998" width="41.0" height="34.839999999999996" rx="3" fill="#f28b82" stroke="#333"/>
<text x="626.5" y="219.74" text-anchor="middle" font-family="Arial, sans-serif" font-size="13.0">59</text></g>
<g><title>distance 60: 159/159 DIMACS edges</title>
<rect x="650.0" y="195.51999999999998" width="41.0" height="34.839999999999996" rx="3" fill="#f28b82" stroke="#333"/>
<text x="670.5" y="219.74" text-anchor="middle" font-family="Arial, sans-serif" font-size="13.0">60</text></g>
<g><title>distance 61: 159/159 DIMACS edges</title>
<rect x="34.0" y="233.35999999999999" width="41.0" height="34.839999999999996" rx="3" fill="#f28b82" stroke="#333"/>
<text x="54.5" y="257.58" text-anchor="middle" font-family="Arial, sans-serif" font-size="13.0">61</text></g>
<g><title>distance 62: 159/159 DIMACS edges</title>
<rect x="78.0" y="233.35999999999999" width="41.0" height="34.839999999999996" rx="3" fill="#f28b82" stroke="#333"/>
<text x="98.5" y="257.58" text-anchor="middle" font-family="Arial, sans-serif" font-size="13.0">62</text></g>
<g><title>distance 63: 159/159 DIMACS edges</title>
<rect x="122.0" y="233.35999999999999" width="41.0" height="34.839999999999996" rx="3" fill="#f28b82" stroke="#333"/>
<text x="142.5" y="257.58" text-anchor="middle" font-family="Arial, sans-serif" font-size="13.0">63</text></g>
<g><title>distance 64: 0/159 DIMACS edges</title>
<rect x="166.0" y="233.35999999999999" width="41.0" height="34.839999999999996" rx="3" fill="#6ea8fe" stroke="#333"/>
<text x="186.5" y="257.58" text-anchor="middle" font-family="Arial, sans-serif" font-size="13.0">64</text></g>
<g><title>distance 65: 159/159 DIMACS edges</title>
<rect x="210.0" y="233.35999999999999" width="41.0" height="34.839999999999996" rx="3" fill="#f28b82" stroke="#333"/>
<text x="230.5" y="257.58" text-anchor="middle" font-family="Arial, sans-serif" font-size="13.0">65</text></g>
<g><title>distance 66: 159/159 DIMACS edges</title>
<rect x="254.0" y="233.35999999999999" width="41.0" height="34.839999999999996" rx="3" fill="#f28b82" stroke="#333"/>
<text x="274.5" y="257.58" text-anchor="middle" font-family="Arial, sans-serif" font-size="13.0">66</text></g>
<g><title>distance 67: 159/159 DIMACS edges</title>
<rect x="298.0" y="233.35999999999999" width="41.0" height="34.839999999999996" rx="3" fill="#f28b82" stroke="#333"/>
<text x="318.5" y="257.58" text-anchor="middle" font-family="Arial, sans-serif" font-size="13.0">67</text></g>
<g><title>distance 68: 159/159 DIMACS edges</title>
<rect x="342.0" y="233.35999999999999" width="41.0" height="34.839999999999996" rx="3" fill="#f28b82" stroke="#333"/>
<text x="362.5" y="257.58" text-anchor="middle" font-family="Arial, sans-serif" font-size="13.0">68</text></g>
<g><title>distance 69: 0/159 DIMACS edges</title>
<rect x="386.0" y="233.35999999999999" width="41.0" height="34.839999999999996" rx="3" fill="#6ea8fe" stroke="#333"/>
<text x="406.5" y="257.58" text-anchor="middle" font-family="Arial, sans-serif" font-size="13.0">69</text></g>
<g><title>distance 70: 159/159 DIMACS edges</title>
<rect x="430.0" y="233.35999999999999" width="41.0" height="34.839999999999996" rx="3" fill="#f28b82" stroke="#333"/>
<text x="450.5" y="257.58" text-anchor="middle" font-family="Arial, sans-serif" font-size="13.0">70</text></g>
<g><title>distance 71: 159/159 DIMACS edges</title>
<rect x="474.0" y="233.35999999999999" width="41.0" height="34.839999999999996" rx="3" fill="#f28b82" stroke="#333"/>
<text x="494.5" y="257.58" text-anchor="middle" font-family="Arial, sans-serif" font-size="13.0">71</text></g>
<g><title>distance 72: 159/159 DIMACS edges</title>
<rect x="518.0" y="233.35999999999999" width="41.0" height="34.839999999999996" rx="3" fill="#f28b82" stroke="#333"/>
<text x="538.5" y="257.58" text-anchor="middle" font-family="Arial, sans-serif" font-size="13.0">72</text></g>
<g><title>distance 73: 159/159 DIMACS edges</title>
<rect x="562.0" y="233.35999999999999" width="41.0" height="34.839999999999996" rx="3" fill="#f28b82" stroke="#333"/>
<text x="582.5" y="257.58" text-anchor="middle" font-family="Arial, sans-serif" font-size="13.0">73</text></g>
<g><title>distance 74: 159/159 DIMACS edges</title>
<rect x="606.0" y="233.35999999999999" width="41.0" height="34.839999999999996" rx="3" fill="#f28b82" stroke="#333"/>
<text x="626.5" y="257.58" text-anchor="middle" font-family="Arial, sans-serif" font-size="13.0">74</text></g>
<g><title>distance 75: 159/159 DIMACS edges</title>
<rect x="650.0" y="233.35999999999999" width="41.0" height="34.839999999999996" rx="3" fill="#f28b82" stroke="#333"/>
<text x="670.5" y="257.58" text-anchor="middle" font-family="Arial, sans-serif" font-size="13.0">75</text></g>
<g><title>distance 76: 159/159 DIMACS edges</title>
<rect x="34.0" y="271.2" width="41.0" height="34.839999999999996" rx="3" fill="#f28b82" stroke="#333"/>
<text x="54.5" y="295.42" text-anchor="middle" font-family="Arial, sans-serif" font-size="13.0">76</text></g>
<g><title>distance 77: 159/159 DIMACS edges</title>
<rect x="78.0" y="271.2" width="41.0" height="34.839999999999996" rx="3" fill="#f28b82" stroke="#333"/>
<text x="98.5" y="295.42" text-anchor="middle" font-family="Arial, sans-serif" font-size="13.0">77</text></g>
<g><title>distance 78: 0/159 DIMACS edges</title>
<rect x="122.0" y="271.2" width="41.0" height="34.839999999999996" rx="3" fill="#6ea8fe" stroke="#333"/>
<text x="142.5" y="295.42" text-anchor="middle" font-family="Arial, sans-serif" font-size="13.0">78</text></g>
<g><title>distance 79: 159/159 DIMACS edges</title>
<rect x="166.0" y="271.2" width="41.0" height="34.839999999999996" rx="3" fill="#f28b82" stroke="#333"/>
<text x="186.5" y="295.42" text-anchor="middle" font-family="Arial, sans-serif" font-size="13.0">79</text></g>
<rect x="34" y="339.03999999999996" width="18" height="18" fill="#6ea8fe" stroke="#333"/>
<text x="59" y="353.03999999999996" font-family="Arial, sans-serif" font-size="12">Blue: blue circular distance</text>
<rect x="264" y="339.03999999999996" width="18" height="18" fill="#f28b82" stroke="#333"/>
<text x="289" y="353.03999999999996" font-family="Arial, sans-serif" font-size="12">Red: red circular distance</text>
</svg>
