<svg xmlns="http://www.w3.org/2000/svg" width="728.0" height="281.52" viewBox="0 0 728.0 281.52" role="img" aria-labelledby="title description">
<title id="title">Circular-distance matrix for R_4_9_graphSize_68.clq</title>
<desc id="description">A coloured circular-distance matrix following the paper convention. Red cells are DIMACS edges and blue cells are complementary edges.</desc>
<rect width="100%" height="100%" fill="white"/>
<text x="34" y="31" font-family="Arial, sans-serif" font-size="18" font-weight="700">Circular-distance matrix for R_4_9_graphSize_68.clq</text>
<text x="34" y="55" font-family="Arial, sans-serif" font-size="13">Graph order t = 68; each cell represents one circular distance.</text>
<g><title>distance 1: 68/68 DIMACS edges</title>
<rect x="34.0" y="82.0" width="41.0" height="34.839999999999996" rx="3" fill="#f28b82" stroke="#333"/>
<text x="54.5" y="106.22" text-anchor="middle" font-family="Arial, sans-serif" font-size="13.0">1</text></g>
<g><title>distance 2: 68/68 DIMACS edges</title>
<rect x="78.0" y="82.0" width="41.0" height="34.839999999999996" rx="3" fill="#f28b82" stroke="#333"/>
<text x="98.5" y="106.22" text-anchor="middle" font-family="Arial, sans-serif" font-size="13.0">2</text></g>
<g><title>distance 3: 68/68 DIMACS edges</title>
<rect x="122.0" y="82.0" width="41.0" height="34.839999999999996" rx="3" fill="#f28b82" stroke="#333"/>
<text x="142.5" y="106.22" text-anchor="middle" font-family="Arial, sans-serif" font-size="13.0">3</text></g>
<g><title>distance 4: 0/68 DIMACS edges</title>
<rect x="166.0" y="82.0" width="41.0" height="34.839999999999996" rx="3" fill="#6ea8fe" stroke="#333"/>
<text x="186.5" y="106.22" text-anchor="middle" font-family="Arial, sans-serif" font-size="13.0">4</text></g>
<g><title>distance 5: 68/68 DIMACS edges</title>
<rect x="210.0" y="82.0" width="41.0" height="34.839999999999996" rx="3" fill="#f28b82" stroke="#333"/>
<text x="230.5" y="106.22" text-anchor="middle" font-family="Arial, sans-serif" font-size="13.0">5</text></g>
<g><title>distance 6: 0/68 DIMACS edges</title>
<rect x="254.0" y="82.0" width="41.0" height="34.839999999999996" rx="3" fill="#6ea8fe" stroke="#333"/>
<text x="274.5" y="106.22" text-anchor="middle" font-family="Arial, sans-serif" font-size="13.0">6</text></g>
<g><title>distance 7: 68/68 DIMACS edges</title>
<rect x="298.0" y="82.0" width="41.0" height="34.839999999999996" rx="3" fill="#f28b82" stroke="#333"/>
<text x="318.5" y="106.22" text-anchor="middle" font-family="Arial, sans-serif" font-size="13.0">7</text></g>
<g><title>distance 8: 68/68 DIMACS edges</title>
<rect x="342.0" y="82.0" width="41.0" height="34.839999999999996" rx="3" fill="#f28b82" stroke="#333"/>
<text x="362.5" y="106.22" text-anchor="middle" font-family="Arial, sans-serif" font-size="13.0">8</text></g>
<g><title>distance 9: 0/68 DIMACS edges</title>
<rect x="386.0" y="82.0" width="41.0" height="34.839999999999996" rx="3" fill="#6ea8fe" stroke="#333"/>
<text x="406.5" y="106.22" text-anchor="middle" font-family="Arial, sans-serif" font-size="13.0">9</text></g>
<g><title>distance 10: 68/68 DIMACS edges</title>
<rect x="430.0" y="82.0" width="41.0" height="34.839999999999996" rx="3" fill="#f28b82" stroke="#333"/>
<text x="450.5" y="106.22" text-anchor="middle" font-family="Arial, sans-serif" font-size="13.0">10</text></g>
<g><title>distance 11: 68/68 DIMACS edges</title>
<rect x="474.0" y="82.0" width="41.0" height="34.839999999999996" rx="3" fill="#f28b82" stroke="#333"/>
<text x="494.5" y="106.22" text-anchor="middle" font-family="Arial, sans-serif" font-size="13.0">11</text></g>
<g><title>distance 12: 0/68 DIMACS edges</title>
<rect x="518.0" y="82.0" width="41.0" height="34.839999999999996" rx="3" fill="#6ea8fe" stroke="#333"/>
<text x="538.5" y="106.22" text-anchor="middle" font-family="Arial, sans-serif" font-size="13.0">12</text></g>
<g><title>distance 13: 68/68 DIMACS edges</title>
<rect x="562.0" y="82.0" width="41.0" height="34.839999999999996" rx="3" fill="#f28b82" stroke="#333"/>
<text x="582.5" y="106.22" text-anchor="middle" font-family="Arial, sans-serif" font-size="13.0">13</text></g>
<g><title>distance 14: 68/68 DIMACS edges</title>
<rect x="606.0" y="82.0" width="41.0" height="34.839999999999996" rx="3" fill="#f28b82" stroke="#333"/>
<text x="626.5" y="106.22" text-anchor="middle" font-family="Arial, sans-serif" font-size="13.0">14</text></g>
<g><title>distance 15: 68/68 DIMACS edges</title>
<rect x="650.0" y="82.0" width="41.0" height="34.839999999999996" rx="3" fill="#f28b82" stroke="#333"/>
<text x="670.5" y="106.22" text-anchor="middle" font-family="Arial, sans-serif" font-size="13.0">15</text></g>
<g><title>distance 16: 0/68 DIMACS edges</title>
<rect x="34.0" y="119.84" width="41.0" height="34.839999999999996" rx="3" fill="#6ea8fe" stroke="#333"/>
<text x="54.5" y="144.06" text-anchor="middle" font-family="Arial, sans-serif" font-size="13.0">16</text></g>
<g><title>distance 17: 0/68 DIMACS edges</title>
<rect x="78.0" y="119.84" width="41.0" height="34.839999999999996" rx="3" fill="#6ea8fe" stroke="#333"/>
<text x="98.5" y="144.06" text-anchor="middle" font-family="Arial, sans-serif" font-size="13.0">17</text></g>
<g><title>distance 18: 68/68 DIMACS edges</title>
<rect x="122.0" y="119.84" width="41.0" height="34.839999999999996" rx="3" fill="#f28b82" stroke="#333"/>
<text x="142.5" y="144.06" text-anchor="middle" font-family="Arial, sans-serif" font-size="13.0">18</text></g>
<g><title>distance 19: 0/68 DIMACS edges</title>
<rect x="166.0" y="119.84" width="41.0" height="34.839999999999996" rx="3" fill="#6ea8fe" stroke="#333"/>
<text x="186.5" y="144.06" text-anchor="middle" font-family="Arial, sans-serif" font-size="13.0">19</text></g>
<g><title>distance 20: 68/68 DIMACS edges</title>
<rect x="210.0" y="119.84" width="41.0" height="34.839999999999996" rx="3" fill="#f28b82" stroke="#333"/>
<text x="230.5" y="144.06" text-anchor="middle" font-family="Arial, sans-serif" font-size="13.0">20</text></g>
<g><title>distance 21: 68/68 DIMACS edges</title>
<rect x="254.0" y="119.84" width="41.0" height="34.839999999999996" rx="3" fill="#f28b82" stroke="#333"/>
<text x="274.5" y="144.06" text-anchor="middle" font-family="Arial, sans-serif" font-size="13.0">21</text></g>
<g><title>distance 22: 0/68 DIMACS edges</title>
<rect x="298.0" y="119.84" width="41.0" height="34.839999999999996" rx="3" fill="#6ea8fe" stroke="#333"/>
<text x="318.5" y="144.06" text-anchor="middle" font-family="Arial, sans-serif" font-size="13.0">22</text></g>
<g><title>distance 23: 0/68 DIMACS edges</title>
<rect x="342.0" y="119.84" width="41.0" height="34.839999999999996" rx="3" fill="#6ea8fe" stroke="#333"/>
<text x="362.5" y="144.06" text-anchor="middle" font-family="Arial, sans-serif" font-size="13.0">23</text></g>
<g><title>distance 24: 68/68 DIMACS edges</title>
<rect x="386.0" y="119.84" width="41.0" height="34.839999999999996" rx="3" fill="#f28b82" stroke="#333"/>
<text x="406.5" y="144.06" text-anchor="middle" font-family="Arial, sans-serif" font-size="13.0">24</text></g>
<g><title>distance 25: 0/68 DIMACS edges</title>
<rect x="430.0" y="119.84" width="41.0" height="34.839999999999996" rx="3" fill="#6ea8fe" stroke="#333"/>
<text x="450.5" y="144.06" text-anchor="middle" font-family="Arial, sans-serif" font-size="13.0">25</text></g>
<g><title>distance 26: 68/68 DIMACS edges</title>
<rect x="474.0" y="119.84" width="41.0" height="34.839999999999996" rx="3" fill="#f28b82" stroke="#333"/>
<text x="494.5" y="144.06" text-anchor="middle" font-family="Arial, sans-serif" font-size="13.0">26</text></g>
<g><title>distance 27: 68/68 DIMACS edges</title>
<rect x="518.0" y="119.84" width="41.0" height="34.839999999999996" rx="3" fill="#f28b82" stroke="#333"/>
<text x="538.5" y="144.06" text-anchor="middle" font-family="Arial, sans-serif" font-size="13.0">27</text></g>
<g><title>distance 28: 68/68 DIMACS edges</title>
<rect x="562.0" y="119.84" width="41.0" height="34.839999999999996" rx="3" fill="#f28b82" stroke="#333"/>
<text x="582.5" y="144.06" text-anchor="middle" font-family="Arial, sans-serif" font-size="13.0">28</text></g>
<g><title>distance 29: 68/68 DIMACS edges</title>
<rect x="606.0" y="119.84" width="41.0" height="34.839999999999996" rx="3" fill="#f28b82" stroke="#333"/>
<text x="626.5" y="144.06" text-anchor="middle" font-family="Arial, sans-serif" font-size="13.0">29</text></g>
<g><title>distance 30: 68/68 DIMACS edges</title>
<rect x="650.0" y="119.84" width="41.0" height="34.839999999999996" rx="3" fill="#f28b82" stroke="#333"/>
<text x="670.5" y="144.06" text-anchor="middle" font-family="Arial, sans-serif" font-size="13.0">30</text></g>
<g><title>distance 31: 68/68 DIMACS edges</title>
<rect x="34.0" y="157.68" width="41.0" height="34.839999999999996" rx="3" fill="#f28b82" stroke="#333"/>
<text x="54.5" y="181.90" text-anchor="middle" font-family="Arial, sans-serif" font-size="13.0">31</text></g>
<g><title>distance 32: 0/68 DIMACS edges</title>
<rect x="78.0" y="157.68" width="41.0" height="34.839999999999996" rx="3" fill="#6ea8fe" stroke="#333"/>
<text x="98.5" y="181.90" text-anchor="middle" font-family="Arial, sans-serif" font-size="13.0">32</text></g>
<g><title>distance 33: 68/68 DIMACS edges</title>
<rect x="122.0" y="157.68" width="41.0" height="34.839999999999996" rx="3" fill="#f28b82" stroke="#333"/>
<text x="142.5" y="181.90" text-anchor="middle" font-family="Arial, sans-serif" font-size="13.0">33</text></g>
<g><title>distance 34: 34/34 DIMACS edges</title>
<rect x="166.0" y="157.68" width="41.0" height="34.839999999999996" rx="3" fill="#f28b82" stroke="#333"/>
<text x="186.5" y="181.90" text-anchor="middle" font-family="Arial, sans-serif" font-size="13.0">34</text></g>
<rect x="34" y="225.51999999999998" width="18" height="18" fill="#6ea8fe" stroke="#333"/>
<text x="59" y="239.51999999999998" font-family="Arial, sans-serif" font-size="12">Blue: blue circular distance</text>
<rect x="264" y="225.51999999999998" width="18" height="18" fill="#f28b82" stroke="#333"/>
<text x="289" y="239.51999999999998" font-family="Arial, sans-serif" font-size="12">Red: red circular distance</text>
</svg>
